<?xml version="1.0" encoding="UTF-8"?><!DOCTYPE svg PUBLIC "-//W3C//DTD SVG 1.1//EN" "http://www.w3.org/Graphics/SVG/1.1/DTD/svg11.dtd"><svg xmlns="http://www.w3.org/2000/svg">

<symbol id="default" viewBox="0 0 100 100">
<path class="fil0" d="M5.56243 81.0397l0 0.893733c0.0478333,0.0350667 0.571733,1.22523 1.04807,1.7016 0.765733,0.7659 1.05747,0.773333 1.9074,0.773333 0.505167,0 0.406133,0.0054 0.8248,-0.275 0.236767,0.353667 0.544167,0.873633 0.692733,1.10423 0.156833,0.243433 0.837733,0.8848 0.750633,1.0957l0.206167 0 -0.0610333 0.0485333 1.0156 1.2779 -0.0610333 0.0485333c0.495133,0.0432333 2.34033,2.82477 3.09293,2.8874 -0.146033,0.3736 3.44463,2.61213 3.96937,3.042 0.399867,0.3276 4.0449,2.15427 4.5363,2.28253 0.834433,0.217833 1.54137,0.664567 2.27373,0.8353 0.6917,0.161233 1.51633,0.5355 2.197,0.6879 1.42193,0.318333 3.41113,1.07807 4.79413,1.1932l-0.106433 1.37753 21.3069 0 -0.2062 -3.26867 -0.756067 -0.0312333c-0.701367,0 -1.77617,-0.128667 -2.57177,-0.389033 -0.3122,-0.102167 -0.831233,-0.251 -1.15123,-0.325933 -0.340233,-0.0796667 -0.776533,-0.336567 -1.1388,-0.417 -0.8062,-0.179033 -3.85327,-2.06133 -4.468,-2.59813 -0.285033,-0.248933 -0.713067,-0.510133 -1.01623,-0.771 -0.3501,-0.301267 -0.620933,-0.5907 -0.943067,-0.9129 -0.314533,-0.3146 -0.578967,-0.5791 -0.8935,-0.893733 -0.388267,-0.3883 -0.516333,-0.6614 -0.791533,-0.9279 -0.110733,-0.107233 -0.570433,-0.725233 -0.704633,-0.944233 -0.242133,-0.395067 -0.453933,-0.681667 -0.718533,-1.13747 -0.221733,-0.3819 -0.468767,-0.762967 -0.644633,-1.1427 -0.2058,-0.444367 -0.2598,-0.756167 -0.4536,-1.06223l-0.862633 1.21007c-0.1523,0.2079 -4.10993,1.136 -4.9274,1.33613 -1.424,0.348667 -3.8254,0.726333 -4.7638,0.726333l-1.99393 0.0044 -0.617867 -0.0731667c-1.27803,-0.209667 -2.1708,-0.446333 -3.3595,-0.8333 -0.684767,-0.222933 -2.39327,-1.2674 -2.88047,-1.72503 -1.812,-1.70203 -2.68373,-2.9035 -3.7949,-5.00393 0.1709,-0.356233 0.3181,-1.0742 0.521167,-1.54063 0.260933,-0.599467 0.456167,-0.9251 0.7742,-1.49537 0.278067,-0.498567 0.484767,-0.8633 0.8188,-1.3122 0.0761,-0.102267 0.756567,-1.16147 0.703867,-1.28913l0.206167 0c-0.0958667,-0.232167 2.319,-3.24093 2.65197,-3.74097 0.4155,-0.623933 0.973533,-1.17623 1.48143,-1.82337 0.202067,-0.257433 1.16087,-1.68553 1.50263,-1.72293 -0.0615,-0.148933 0.499333,-0.7431 0.673467,-0.976333 0.115367,-0.154467 0.301333,-0.2971 0.443867,-0.4503 0.224033,-0.240833 0.18,-0.3003 0.304167,-0.4462 0.283967,-0.3335 1.62653,-1.6154 1.5696,-1.79717l0.4455 -0.317367c-0.101833,-0.246533 0.969667,-1.18453 1.2194,-1.4615 0.4826,-0.5352 0.935533,-0.960267 1.40967,-1.4774 0.469633,-0.512267 2.04327,-2.26297 2.3196,-2.28597l-0.0509667 -0.0508667 0.993667 -0.9956 0.844333 -0.809733 -2.47433 -8.181c-0.6061,0.905367 -1.18443,1.50847 -1.834,2.29573 -0.562333,0.681567 -1.17537,1.4657 -1.91587,2.20853 -0.565433,0.567233 -1.28667,1.47777 -1.8689,2.1128 -0.342,0.373033 -0.703367,0.7039 -1.0653,1.06563 -0.218567,0.218433 -0.9546,0.848333 -0.876433,1.0483 -0.310067,0.0339333 -1.25377,1.21987 -1.5292,1.49537 -0.276967,0.277033 -1.46707,1.24933 -1.35753,1.52953l-0.0529333 -0.0506 -2.7193 2.8443c0.0450333,0.188567 -0.6025,0.682033 -0.820133,0.9004 -0.2882,0.289167 -0.4822,0.623833 -0.8236,0.963667 -0.603033,0.600267 -1.0191,1.29227 -1.5457,1.8225 -0.581233,0.585267 -1.1419,1.42333 -1.5476,1.9577 -0.240267,0.316433 -0.4993,0.5871 -0.7397,0.979367 -0.1352,0.220567 -0.587367,0.8901 -0.6658,0.980233 -0.677333,0.7783 -1.8991,3.0631 -2.48333,4.39573 -0.234633,0.535267 -0.598267,1.50543 -0.727067,2.03023 -0.0761667,0.310367 -0.462267,2.07997 -0.5215,2.1509 -0.632333,0 -1.01293,0.1485 -1.39203,0.532633 -0.5454,0.5526 -0.283733,0.616833 -0.6012,1.1173zm39.6028 -25.2857c-0.0838,-0.133833 -0.0819333,-0.285767 -0.0820333,-0.3573l-0.0367 -3.02493c-0.2504,0.7132 -2.96253,1.4851 -3.39987,0.550033 0.0319667,0.3845 0.652633,1.78 0.819067,2.07787 0.296267,0.5302 0.655733,0.887633 0.8434,1.28123 0.0776,0.1993 0.124633,0.438967 0.125967,0.7638 0.00933333,2.27223 -0.0014,2.14343 0.0057,4.18503l-1.3189 -0.818067 0.0746 -0.133867c-0.5649,-0.047 -3.36277,-2.93177 -3.7115,-3.0249 0.186067,0.3517 0.533767,0.7729 0.665133,1.01387 0.0932333,0.171033 0.590067,0.8702 0.726233,1.03183 0.6102,0.724333 0.954733,1.20123 1.53757,1.89947 0.530333,0.635267 1.16973,1.2325 1.76247,1.81257 0.51,0.499133 0.0424333,1.32697 0.1283,2.35387l0 0.275 0.0086 0.276033 -0.0773 2.81763 0 0.275 0 0.274967 0 0.275 0 0.275 0 0.275 0 0.274967 0 0.275 0.00866667 0.275633 -0.0171667 0.343733 0.0085 1.0306 0 0.274967 0 0.275 0 0.275 0 0.275 0 0.274967 0.0052 0.2752 0.0550333 2.13163c0.0329333,1.0031 0.0803,1.81317 0.220533,2.7347 0.0517667,0.3402 0.0330333,0.7046 0.118767,1.25723 0.0351,0.226267 0.210533,1.2827 0.210533,1.3704 0,0.262833 0.0211,0.0250333 -0.0687333,0.206233 0.1584,0.1161 0.3958,1.72017 0.472133,2.00217 0.203567,0.7523 0.338133,1.36187 0.5692,1.97487 0.195467,0.518567 0.6573,1.4276 0.968867,1.8485 0.216267,0.2922 1.29,1.43323 1.63847,1.46537l-0.0746 0.133867c0.0661333,0.00553333 2.7143,1.5173 3.3075,1.7104 1.07217,0.349 1.98167,0.765067 3.3278,1.0568 1.0301,0.223267 2.35547,0.534133 3.5205,0.701 1.03743,0.148567 2.67263,0.450433 3.59057,0.433267l0.351133 0.0160667 -0.2663 -1.7989 -0.0848333 0.0125667c0.0011,-0.00133333 0.0687333,-0.128233 0.0687333,-0.1375 0,-0.262833 0.0211,-0.025 -0.0656667,-0.173267l0.824167 -0.0782667 8.2439 -0.8625 9.2107 -0.956333 2.1293 -0.217567 2.3391 -0.255733c1.26287,-1.88633 2.39697,-4.94833 2.72693,-6.9069 0.4507,-2.67523 1.25953,-4.88083 1.25953,-7.7364 0,-0.4718 0.102867,-1.78447 0.1029,-2.01077 3.33333e-005,-0.4535 -0.00496667,-0.887 -0.00103333,-1.33883 0.0100333,-1.1516 0.138367,-2.7463 0.1385,-3.61103 0.000266667,-1.7593 -0.0434,-3.49893 -0.1003,-6.1683l0.6769 -0.919533 -0.0609333 -0.0448667 0.154767 -0.0362 1.60583 -2.39793 -1.69873 1.60587 -0.0677333 -0.0618333 0.0804667 0.130267 -0.0571333 -0.0562 -0.651233 0.541933 -0.113767 -1.58143 0 -0.275 0.00316667 -0.275733 -0.00993333 -1.93433 -2.0165 2.07873c-0.3909,1.50753 -1.3306,4.3522 -1.3531,4.39307 -0.1883,0.257067 -0.788067,0.5198 -1.49457,0.739533l-0.648767 3.31897c0.1503,-0.0836333 0.2567,-0.1373 0.287567,-0.139867 -0.208967,0.4356 -1.32563,2.2257 -1.7183,2.26867 0.0941667,0.228 -1.12183,1.46977 -1.5121,1.51247l0.0746 0.133867c-0.213033,0.0208667 -1.51303,1.0238 -1.82413,1.20983 -0.6322,0.3781 -1.2041,0.6086 -1.88163,0.939933 -0.628633,0.307433 -3.20753,1.15377 -3.8606,1.15377l-0.681967 0.168033c-0.335667,0.1907 -4.49937,0.627667 -5.34943,0.622833 -1.49027,-0.00846667 -3.0747,-0.1755 -4.91547,-0.622467 -1.691,-0.410633 -3.10047,-0.9517 -4.98703,-1.899 -0.514633,-0.2584 -2.08963,-1.14427 -2.40303,-1.44683 -0.423133,-0.408467 -1.6978,-1.1381 -2.07643,-1.70367 0.118667,-0.0490333 2.50017,0.481233 2.95547,0.481233 0.5968,0 0.899633,0.0346333 1.39173,0.0345667 0.440333,-6.66667e-005 0.858233,-0.1024 1.58513,-0.138033 0.368867,-0.0181 1.00157,-0.152567 1.54853,-0.3194 0.354233,-0.108033 1.74997,-0.608367 2.00413,-0.608367l0.0687333 0c0.0717,0 1.07363,0.234933 1.07833,0.2361 0.327233,0.0833 0.917367,0.1416 1.25923,0.173867 0.734567,0.0693 1.39367,0.2162 2.40493,0.140033l0.275567 0.0085 0.274933 0 0.274933 0 1.58107 -0.0598333c0.8786,-0.0612333 0.958533,0.309633 2.1163,0.478567 0.6356,0.0927333 1.69257,0.328967 2.41913,0.328967l0.0687333 0 0.343633 -0.0171667 0.2062 0.0171667 0.343667 -0.0171667 0.0687333 0.0171667c1.36127,0 3.06167,-0.414133 4.4763,-0.884967 0.862533,-0.287067 1.43777,-0.579433 2.24813,-0.9825 0.224067,-0.111467 1.1213,-0.665633 1.68383,-0.989567l0.7111 -3.3826c-1.02277,0.3072 -2.2316,0.5217 -2.74123,0.501633 -1.6587,-0.0653333 -3.11973,-0.4468 -4.37297,-1.07983 -2.65193,-1.33953 -5.02283,-3.0131 -7.77863,-3.0131 -0.331833,0 -1.40553,0.1339 -1.8428,0.353333 -0.451,0.226333 -1.4606,0.728933 -1.5938,1.22787 -0.159333,-0.0528333 -0.527133,-0.581533 -0.7707,-0.810333 -0.248567,-0.233467 -0.738867,-0.4847 -1.07347,-0.648333 -0.6735,-0.3294 -1.51973,-0.328767 -2.76087,-0.328767l-0.1512 0.123733c-0.309,-0.141133 -1.24683,0.210167 -1.4461,0.255033 -0.464067,0.104467 -0.986433,0.4549 -1.3411,0.545867 -0.582367,0.1494 -1.74037,0.949067 -2.5033,1.33217 -2.2131,1.11123 -3.33337,1.6267 -5.62413,1.7993l-0.275567 -0.0085c-0.0191,0.01 -0.220533,0.0156333 -0.2743,0.0085l-1.17473 -0.1586c-0.347367,-0.689533 -0.728767,-1.58187 -1.00343,-2.36677 -0.184033,-0.525833 -0.322833,-0.8892 -0.412767,-1.2865 -0.0589333,-0.2605 -0.2952,-1.27407 -0.2958,-1.27547 0.272767,0.0227 0.944633,0.374567 1.2568,0.452967 0.2637,0.0662 0.7586,0.236067 1.06353,0.268733 0.641633,0.0687 1.60227,0.194533 2.21597,0.240767l0.275567 -0.0085 0.274933 0 0.274933 0c0.248367,0.0272667 1.26763,-0.0791 1.5928,-0.1144 0.8591,-0.0932 1.24293,-0.131967 1.92197,-0.283467 0.8002,-0.178533 1.24577,-0.3446 2.0436,-0.633133 0.477333,-0.172633 1.61147,-0.955467 1.86403,-1.02293 0.203833,0.369967 0.3762,1.06517 0.855933,1.3438 0.5988,0.347833 1.04673,0.5124 1.54967,0.5124 0.0421,0 0.2251,0.0687333 0.343667,0.0687333l1.16843 0c0.731767,0 2.31897,-0.293167 3.31257,-0.398533 0.2692,-0.0285333 0.5141,-0.0545333 0.740467,-0.0774667l0.053 -0.8576c-0.240033,-0.0641333 -0.4731,-0.165233 -0.612833,-0.314267l-1.04457 -0.0474667c0.0134667,0.0357333 0.0223667,0.0737 0.0257333,0.114133l-1.43333 0.383733 -0.0122333 -0.0690667 -0.273367 0.0206 -0.274933 0c-0.4701,0.0439333 -0.988867,-0.146067 -1.51147,-0.335267l0 -0.343733c0.5886,-0.049 0.7613,-0.275 1.23717,-0.275l1.16847 0c0.208833,0 0.7784,0.0922667 1.0057,0.3841l1.06763 0.0776333c0.418133,-0.705133 2.81607,-0.5493 3.56267,-0.0492333l-0.0229 0.206233c-0.2993,0.0268333 -0.425967,0.229933 -0.745833,0.261767 -0.492867,0.0490667 -0.4881,0.0575667 -0.8121,0.0819667l-0.275567 -0.00846667 -0.274933 0c-0.131633,0.0138667 -0.3919,-0.00116667 -0.660267,-0.0602l-0.0275333 0.816267c0.891933,-0.0881 1.4964,-0.123067 2.20163,-0.0668 1.77553,0.141633 2.30147,0.459433 2.6994,-1.4053 0.0857,-0.401567 -0.0523,-2.561 -1.05093,-2.64413l0.0746 -0.133867c-0.332433,-0.0308 -0.991867,-0.694767 -1.59517,-0.675767 -0.700367,0.0220667 -0.5609,0.767933 -0.6101,1.35963 -0.0567667,-0.0234667 -0.959433,0.232333 -1.30593,0.206233l-0.275567 0.0085c-0.701733,-0.0614333 -1.83633,-0.216067 -2.64117,-0.400667 -0.2943,-0.0674667 -0.6132,-0.1601 -0.758,-0.2043 -0.259433,-0.0792 -0.369633,-0.3165 -0.569333,-0.397167 -0.2197,-0.0887333 -0.383033,-0.2306 -0.6241,-0.284833 -0.156133,-0.0351333 -0.625167,-0.231133 -0.630367,-0.234 0.0771333,-0.288933 0.547133,-1.1286 0.748433,-1.5922 0.212033,-0.488333 0.366667,-1.0344 0.5679,-1.55977 0.1775,-0.463333 0.328233,-1.17407 0.531633,-1.6779 0.312033,-0.773 0.339733,-0.925867 0.6285,-1.47783 0.377233,-0.721033 0.8129,-0.487333 1.3169,-0.534333 0.945633,-0.0882 1.4751,-0.1589 1.8438,0.584833 0.620233,1.25113 0.889533,1.9135 1.42097,3.1155 2.07357,4.69003 5.45353,7.80797 10.8121,7.67907l0.550367 0.0205333 1.23583 -0.0433667c0.0618667,0.0206 0.217733,-0.0459 0.3445,-0.0459 0.733033,0 1.75643,-0.213733 2.44237,-0.360767 0.238167,-0.0510667 2.285,-0.8151 2.30013,-0.807967 0.0281,0.0596667 -0.0115667,0.2965 -0.0935667,0.638867l1.95033 -1.9543 -0.000866667 -0.1707 -1.51153 -1.085c-0.582467,0.6766 -1.08,0.942067 -1.8452,1.4137 -1.0104,0.6228 -3.4046,1.01993 -4.4101,1.01993l-0.756067 0 -2.89003 -0.315667c-0.2297,-0.184133 -1.24157,-0.395967 -1.63583,-0.590367 -0.295733,-0.145833 -0.180767,-0.0308333 -0.412467,-0.130467 -0.208833,-0.0897667 -0.128567,-0.141967 -0.370367,-0.239467 -0.293633,-0.118367 -0.491833,-0.3495 -0.735433,-0.506 -0.973967,-0.625733 -1.77613,-1.57093 -2.47797,-2.5498 -0.7547,-1.05263 -1.09127,-2.12157 -1.57367,-3.31677 -0.170967,-0.4235 -1.23127,-3.35113 -0.557667,-3.35113 0.0417,0 0.730067,0.486733 0.881567,0.561967 0.289533,0.143733 0.690767,0.3302 0.892267,0.374167 0.894833,0.195367 1.20277,0.301333 1.80023,0.301333l0.0687333 0c2.4174,0 4.83477,-1.73993 5.6461,-3.83927 0.189967,-0.491567 0.1999,-0.3713 0.8107,-0.430867 0.2796,-0.0272667 0.6248,-0.103233 0.898167,-0.123867 0.9681,-0.0730333 1.17843,-0.0974667 2.06497,-0.145033 0.957467,-0.0513667 2.74057,-0.2619 3.50167,-0.204567l0.275567 -0.0085 0.857933 -0.0217 -0.120267 -1.762 -0.1891 -0.00373333 -0.274933 0 -0.481167 -0.0532 -1.30557 -0.0703 -0.275233 0.003 -1.1659 0.0864333c-0.6896,0.0231 -1.259,0.1276 -1.66237,0.166633 -0.8243,0.0797667 -1.08703,0.0596333 -1.7673,0.1923 -1.0961,0.213767 -0.632133,-0.095 -0.8262,-0.9452 -0.0802,-0.351433 -0.0789667,-0.467467 -0.212367,-0.813833 -0.0557333,-0.144733 -0.192933,-0.6178 -0.2246,-0.6688 -0.3715,-0.598 -0.5544,-1.0406 -0.9941,-1.55187 -0.4329,-0.503367 -0.9354,-0.758133 -1.4486,-1.16873 -0.7721,-0.6177 -2.27087,-0.805267 -3.24487,-0.805267 -1.60747,0 -2.91447,0.5615 -4.16783,1.67473 -1.05587,0.9378 -1.81183,2.9335 -1.81183,3.9626l0 0.756233c0,0.4362 0.175267,1.21457 0.3869,1.8032l0.840733 -0.1099c-0.217767,-0.765067 -0.402867,-0.877067 -0.402867,-2.03707 0,-1.3968 0.440233,-2.56327 1.32453,-3.55627 0.833633,-0.9361 2.43677,-1.66857 3.34923,-1.7373l0.275567 0.0085 0.755433 -0.0085c0.350433,0 1.7449,0.3804 2.11247,0.636767 1.07157,0.747333 1.06697,0.792 1.89573,1.75287 0.380767,0.441433 0.6769,1.56063 0.7738,2.13557 0.2488,1.4766 -0.255933,0.718733 -1.20797,1.11213 0,-1.08007 -0.2172,-2.14477 -0.841133,-2.8023 -0.466367,-0.491433 -0.631267,-0.617067 -1.17023,-1.02947 -0.2093,-0.160167 -1.24207,-0.499367 -1.4252,-0.499367l-1.031 0c-1.03797,0 -2.26793,0.842767 -2.94497,1.8829l0.348467 -0.0455667c0.374833,-0.541467 1.0487,-0.9436 1.63427,-0.9436l0.2062 0c1.31613,0 2.42887,1.76647 1.5766,3.09913 -1.0075,1.5753 -3.2512,0.685233 -3.0887,0.2695l-0.2062 0c-0.0300333,-0.361 -0.4124,-0.638867 -0.4124,-1.23747l0 -0.343733c0,-0.238333 0.0729333,-0.4746 0.196067,-0.693533l-0.346567 0.0439c-0.0552,0.0936333 -0.105767,0.188567 -0.1512,0.284367 -0.3275,0.690567 -0.3511,1.42837 -0.351033,1.86063 6.66667e-005,0.883267 0.2985,1.0613 0.515267,1.87327l-1.2991 0.304633c-0.0158667,-0.0682333 -0.0317,-0.132067 -0.0474,-0.192067l-0.8287 0.1049c0.0372,0.0956667 0.0752,0.1845 0.113233,0.2638l-1.44197 0.215833 -0.276967 -0.0181 -0.2749 0 -0.274933 0 -0.274933 0c-0.00706667,0.00906667 -0.243167,-0.0474 -0.2743,-0.0602667 0.0616667,-0.0920667 0.125067,-0.201833 0.188267,-0.324567l-0.810167 -0.157167c-0.00763333,0.012 -0.0163667,0.0247 -0.0264667,0.0383667 -0.129267,0.175 -0.202633,0.208467 -0.313867,0.374633l-1.44293 -0.277633c0.493533,-0.3407 0.840433,-1.07557 1.0555,-1.75797 0.238633,-0.757133 0.142467,-1.3143 0.0795,-1.89987 -0.047,-0.437233 -0.478167,-1.3589 -0.946267,-1.82233 -0.5623,-0.556733 -1.10937,-1.0513 -1.99267,-1.24137 -1.31357,-0.2827 -2.6669,-0.103833 -3.9022,1.15463 -0.0953333,0.0971 -0.185967,0.201367 -0.271333,0.311833l0.224767 0.0881333c0.296633,-0.403267 0.767867,-0.693433 1.42217,-0.742733l0.2749 0c1.08963,-0.0821 1.8925,1.15577 1.88993,1.90783 -0.00303333,0.888567 -0.561933,1.99103 -1.8202,2.08107 -1.92573,0.1378 -2.6037,-1.914 -1.84513,-3.13013l-0.230233 -0.0913667c-0.757367,1.06033 -1.0467,2.62803 -0.399967,3.9762l-1.4478 -0.168767c-0.0572667,-0.149467 -0.133033,-0.633633 -0.133033,-0.9312 0,-1.22297 -0.0820333,-1.10707 0.374167,-2.66437 0.229333,-0.782867 1.38907,-2.01597 2.1108,-2.41237 0.8585,-0.4715 2.0595,-0.911733 2.9614,-0.801567 0.4893,0.0597667 0.929367,0.110833 1.5562,0.3178 0.351233,0.116 1.36773,0.735433 1.5202,0.748133l-0.0746333 0.133867c0.940033,0.0814 1.90693,2.52913 2.05247,3.4568 0.0995667,0.6347 0.0525667,1.3857 -0.165933,2.07347 -0.138333,0.4355 -0.106433,0.508733 -0.334933,0.898667 -0.0699,0.119267 -0.0938333,0.188233 -0.113367,0.245067l0.818867 0.1515c0.330133,-0.692267 0.635533,-1.69793 0.635533,-2.35327l0 -0.7562c0,-0.679667 -0.291233,-1.54123 -0.519833,-2.07953 -0.0646667,-0.1523 -0.836333,-1.65447 -1.2672,-1.7016l0.0562333 -0.0634 -0.2903 -0.257667 0.0337333 -0.0878c-0.2183,-0.0268667 -0.6496,-0.443467 -0.8451,-0.548867 -0.3188,-0.171867 -0.619467,-0.355067 -0.9794,-0.5231 -0.451833,-0.210967 -1.58127,-0.444133 -1.8929,-0.444133l-0.756033 0c-2.6177,0 -5.73773,2.6685 -5.70473,5.7061l-0.0252667 0.825233c0.0288333,0.329033 0.1644,0.765667 0.094,0.893467 -0.0535333,0.0295 -0.110767,0.0805667 -0.274933,0.0687333l-1.78637 -0.1467 -1.71797 -0.0839667 -0.276567 0.0159333 -0.274933 0 -2.1306 0.061 -0.275 0.00773333c-0.498967,0.0461333 -0.3878,-0.0812 -0.2669,-0.600167 0.0701333,-0.301133 -0.0195,-0.409067 0.122167,-0.9173 0.108367,-0.3888 0.145367,-1.05277 0.299333,-1.82617 0.151033,-0.7586 0.301767,-1.42163 0.443733,-2.04097 0.157,-0.684967 0.395333,-1.2136 0.533933,-1.80723 0.2411,-1.03253 0.989033,-2.48877 1.46847,-3.46727 0.156367,-0.319167 0.367467,-0.6486 0.470333,-0.865033 0.0785,-0.165133 0.451033,-0.560167 0.526033,-0.721567 0.1308,-0.281633 1.14217,-1.33833 1.0773,-1.49537l0.8724 -0.776667c0.237967,-0.0795667 1.0017,-0.8548 1.27483,-1.06297 0.398667,-0.303833 1.05333,-0.587533 1.40867,-0.8597 0.650333,-0.498033 2.15323,-1.02353 2.9451,-1.31513 2.0991,-0.773033 4.40207,-0.9474 6.28147,-1.0976l1.6514 -0.110167 0.2754 0.00586667 0.2749 0 0.274933 0 0.274933 0 0.274933 0 1.6499 0.115233 1.03083 0.0729667c0.912567,0.0903667 1.84753,0.2582 2.95907,0.486333 1.31827,0.270567 1.7899,0.5776 2.8994,0.867233 0.720233,0.188033 2.08053,1.03513 2.7634,1.44343 0.6296,0.3764 0.695833,0.4527 1.19513,0.798267 0.294833,0.204067 0.9576,0.858667 1.17927,0.8829l-0.0746 0.133867 0.337033 0.215233 0.2749 0.275 0.274933 0.275 -0.0562333 0.0633667c0.453667,0.0496667 1.78057,2.06053 1.971,2.45763 0.164333,0.342733 0.678567,1.09533 0.844867,1.40937 0.2233,0.421667 0.3958,0.732767 0.586467,1.18067 0.389367,0.9148 2.10387,5.63797 1.8213,6.227l0.0801667 -0.0127 0.143033 0.903733 0.1443 1.7567 0.113433 -0.00286667c0.0877333,0.1952 0.1376,1.11837 0.184467,1.44437 0.170767,1.188 -0.177033,0.5148 -0.470267,1.2622 -0.393333,1.00263 -0.2934,1.8511 -0.297,2.53553 -0.0044,0.844433 -0.1384,1.98253 -0.1385,2.64857 -6.66667e-005,0.463167 -0.0587,0.576767 0.111267,1.21253 0.1987,0.743267 0.2852,0.685133 1.0226,1.03903 -0.341867,0.712633 -0.139267,1.2618 -0.608133,1.87067l1.46233 1.1111c0.182133,-0.263167 0.383233,-0.475767 0.572633,-0.730167 0.0884,-0.118733 0.316967,-0.6206 0.464633,-0.911133 0.2889,-0.568433 0.450667,-1.25897 0.644767,-1.90107 0.344667,-1.14033 0.681567,-2.7577 0.880367,-3.73337 0.377067,-1.85057 0.0570667,-2.37443 1.80127,-3.48033 0.2684,-0.170167 0.4108,-3.7327 0.350533,-3.86253l-1.03143 -0.0588 -0.2749 0.00143333 -0.4818 -0.0616667c0.500067,-0.747 0.9804,-1.57187 1.59813,-2.18267 0.6608,-0.653367 1.10917,-1.39513 1.57107,-2.13623 0.994733,-1.59603 0.9547,-3.46 0.9547,-4.8246 0,-1.79187 -1.0226,-3.63087 -1.84673,-4.67863 -1.1106,-1.41203 -3.25377,-2.2649 -4.54533,-2.2649l-0.8935 0c-0.1186,0 -0.301567,0.0687667 -0.343667,0.0687667 -0.283633,0 -0.7682,0.0302333 -1.021,0.197967l-0.147433 -0.197967c0.7065,-0.2558 1.3914,-2.49967 1.6568,-3.14397 0.188867,-0.458467 0.555733,-2.91017 0.522067,-3.45533l0.0205667 -0.5505c-0.0639667,-2.65967 -0.753967,-5.02203 -2.5673,-7.1943 -0.824733,-0.988 -2.44797,-1.89537 -3.396,-2.20623 -1.32777,-0.435333 -2.22873,-0.633333 -3.58923,-0.7859l-0.894033 -0.0640667 -0.481167 -0.0531667 -0.275567 -0.0085c-0.750033,0.0565 -1.40533,-0.0598333 -2.1988,0.0085l-0.274767 0.0047 -0.6227 0.0177 -1.78897 0.131567 -1.2319 0.181267c-1.5621,0.188233 -3.2806,0.493867 -4.6093,0.6832 -1.44987,0.206633 -3.1571,0.740033 -4.65037,0.998867 -0.763367,0.1323 -1.5436,0.376533 -2.16017,0.511533 -0.384533,0.0841667 -0.638467,0.1561 -1.10513,0.264633 -0.533867,0.1242 -0.815033,0.150533 -1.20843,0.2327 -0.469433,0.0980333 -1.7989,-0.2949 -2.3121,-0.594167 -0.491133,-0.286433 -0.6568,-0.277133 -1.0175,-0.6355 -0.2276,-0.226133 -0.7787,-0.7593 -0.944767,-0.7738 0.0884333,-0.214067 -0.4635,-0.639567 -0.620633,-0.8931 -0.159433,-0.257233 -0.401,-0.593533 -0.557567,-0.9533 -0.316933,-0.728367 -0.604867,-1.42023 -0.7147,-2.09137 -0.156667,-0.957533 -0.364167,-3.1629 -0.0315667,-3.96823l-5.91097 0c-0.238067,0.450067 -0.5371,0.759767 -0.7898,1.27243 -0.2874,0.5831 -0.3326,0.644767 -0.5852,1.20197 -0.204167,0.4503 -0.765,2.36317 -0.8244,2.4067 0.082,0.165433 0.0804333,-0.0397333 0.0687333,0.206233l-0.0713333 -0.00336667 -0.1372 2.8874 0.0710667 0.0034c-0.041,0.8623 0.499133,2.56193 0.8094,3.46397 0.373667,1.08637 1.00727,1.9472 1.66493,2.92957 -0.829933,-0.0690667 -2.24767,-0.623133 -3.01223,-1.04313 -1.0779,-0.592133 -1.59973,-1.30693 -2.1924,-2.20717 -0.501833,-0.7623 -0.913233,-1.9719 -1.34557,-2.7142 -0.379833,-0.6522 -0.832,-1.82747 -1.2165,-2.62897 -0.4652,0.311567 -1.93947,3.0236 -2.16823,3.59363 -0.3768,0.938933 -1.3657,3.0013 -1.5077,4.2266 -0.0482667,0.4165 -0.346367,1.5248 -0.473333,2.0917 -0.1122,0.5008 -0.264167,1.42267 -0.347833,2.13377 -0.140733,1.1962 -0.2454,2.86287 -0.2454,3.9038l0 0.343733c0,0.595933 0.1035,1.65657 0.1029,2.45783 -0.000266667,0.356933 0.0891667,0.811033 0.135867,1.37857 0.0229,0.278133 0.173633,1.11507 0.173633,1.3197 0,1.0548 0.9759,5.08083 1.4296,6.13007 0.387433,0.895967 0.621233,1.8965 1.1822,3.01343 0.173133,0.3447 0.721867,1.3179 0.796267,1.5271 0.1582,0.444833 0.695733,1.04757 0.784567,1.42903 4.18653,-0.680567 7.63113,1.3031 7.8596,5.39377 0.0175333,-0.344533 0.0741333,-0.797967 0.1133,-1.2689l0.756067 0c1.05207,0 1.89037,-0.0344 2.86963,-0.0345667 0.573567,-0.0001 2.51157,0.103333 3.59117,0.103333 0.140933,0 0.395067,0.0453333 0.824133,0.0744333 0.448567,0.0304 0.267767,0.128167 0.4599,0.354667 0.216233,0.254867 0.851467,0.9864 1.1903,1.0146l-0.0746 0.133867c0.132567,0.0141667 1.24373,0.6576 1.68123,0.8028 0.676233,0.2244 1.06983,0.292267 1.7829,0.336567 0.9812,0.0609333 2.1033,-0.206933 3.20873,-0.792 0.278667,0.186633 0.412367,0.459733 0.412367,0.756233l0 0.206233c0,0.6989 -0.7154,3.36633 -1.00387,4.1534 -0.235933,0.643733 -0.6037,1.31077 -0.820867,1.8443 -0.0026,0.00636667 -0.4803,0.779267 -0.566567,0.894767 -0.025,0.0334667 -0.826633,0.519833 -0.976533,0.5323 0.0713,0.1825 -0.365533,0.497967 -0.483,0.754367 -0.161833,0.353267 -0.0689333,0.7132 -0.479267,0.7581l0.0746 0.133867c-0.0995667,0.0114333 -1.2764,0.723767 -1.5531,0.8622 -0.609,0.3047 -0.865667,0.3673 -1.58923,0.6103 -1.09667,0.368333 -2.13953,0.525 -3.0494,0.593567l-0.275567 -0.0085 -1.71767 0.0085 -1.16533 -0.160133c-0.187367,-0.1008 -0.678367,-0.1647 -0.968867,-0.245467 -0.4159,-0.1156 -0.6328,-0.205367 -0.9923,-0.385767 -0.515133,-0.2585 -1.1694,-0.5159 -1.3965,-0.982533z"/>
<path class="fil0" d="M88.5267 93.3063l-0.151667 0.0440667 -1.49657 0.238533 -9.27127 1.48913 -0.157167 0.0886333 -7.48583 1.27257 -0.2749 0c0.245333,1.15867 -0.1983,1.20473 0.897667,1.03593 0.718667,-0.1107 1.30497,-0.290867 1.83713,-0.314033 0.401633,-0.0175 4.254,-0.683933 4.4133,-0.790633 0.973067,0 1.30597,-0.202433 2.0308,-0.298333 0.425167,-0.0562667 1.23197,-0.183233 1.8093,-0.293133 1.26207,-0.2402 2.43157,-0.4812 3.6369,-0.616533 1.27703,-0.1434 2.73693,-0.5218 4.31287,-0.7393 0.690133,-0.0952333 3.45823,-0.496767 3.81227,-0.733867 -0.154967,-0.323 -0.0498,-0.962467 -0.343667,-0.962467l-0.0691 -0.0022 -3.50007 0.581633z"/>
<path class="fil0" d="M99.9313 100.014l0.0687333 0 0 -11.7559c-0.523467,-0.2512 -0.7644,-0.609167 -1.20033,-0.861833 -0.436467,-0.252967 -0.812633,-0.544033 -1.22443,-0.8377 -0.3011,-0.214733 -2.25407,-1.50913 -2.52393,-1.5316 -0.0300333,0.361233 -0.2162,0.863133 -0.3905,1.2588 -0.2147,0.487467 -0.625633,0.919233 -0.5076,1.174l3.57863 -0.439133c0.112867,0.135167 0.2062,0.703867 0.2062,0.9625 0,0.350133 0.227267,1.36427 0.2803,1.64903l0.805333 4.82707 0.0828333 -0.0138c-0.00196667,0.00233333 -0.0703667,0.127667 -0.0617667,0.136333l0.886533 5.43223z"/>
<polygon class="fil0" points="89.7642,96.7468 89.6133,96.7928 88.5836,96.9483 80.401,98.2972 80.6225,99.4252 83.4968,98.9342 85.1476,98.6705 92.313,97.4669 92.2713,97.4063 92.0957,96.3697 "/>
</symbol>

</svg>