<?xml version="1.0" encoding="UTF-8"?>
<svg xmlns="http://www.w3.org/2000/svg" xml:space="preserve" width="100" height="75" style="shape-rendering:geometricPrecision; text-rendering:geometricPrecision; image-rendering:optimizeQuality; fill-rule:evenodd; clip-rule:evenodd"
viewBox="0 0 100 70"
 xmlns:xlink="http://www.w3.org/1999/xlink">
 <defs>
  <style type="text/css">
   <![CDATA[
    .nc-video-fil2 {fill:#E7E0DF}
    .nc-video-fil1 {fill:#FEFDFD}
    .nc-video-fil0 {fill:url(#nc_gradient)}
   ]]>
  </style>
  <linearGradient id="nc_gradient" gradientUnits="userSpaceOnUse" x1="50" y1="70" x2="50" y2="0">
   <stop offset="0" style="stop-color:#C80000"/>
   <stop offset="1" style="stop-color:red"/>
  </linearGradient>
 </defs>
  <g>
   <path class="nc-video-fil0" d="M66.5754 33.9774l-26.8787 13.9487 -0.0136 -27.8753 26.8923 13.9266zm-66.2816 -10.9691l-0.2938 5.4597 0 11.4067c0,5.5501 0.3838,13.13 1.5083,17.6072 0.6616,2.634 1.4444,4.832 2.8722,6.6953 1.0554,1.3774 3.8434,3.451 5.7284,3.8523 1.2827,0.273 2.5633,0.6685 3.9979,0.7976 1.359,0.1223 2.8961,0.318 4.3134,0.4836 0.6962,0.0813 1.6404,-0.0791 2.3229,0.0276 0.6649,0.1039 1.4675,0.175 2.2735,0.1743 1.3185,-0.0012 3.3414,-0.0047 4.7021,0.0967 2.7916,0.2079 6.406,0.2941 9.3038,0.2932 3.2474,-0.001 6.2161,0.0975 9.5005,0.0975l8.619 0c3.6099,0 6.9033,-0.0986 10.4799,-0.0975 1.579,0.0005 3.5484,-0.178 5.0893,-0.1987 1.251,-0.0168 4.0298,-0.0003 5.1176,-0.1705 1.2669,-0.1982 3.7062,-0.1588 5.076,-0.212 1.2026,-0.0467 3.7854,-0.1484 4.9325,-0.3548 1.7384,-0.3127 2.9241,-0.3284 4.3686,-0.9161 1.3022,-0.5298 2.3181,-1.0877 3.389,-1.8913 4.0739,-3.0569 5.3281,-8.6724 5.8167,-15.2685 0.2359,-3.1849 0.5884,-6.4741 0.5884,-9.9435 0,-3.5098 0,-7.0195 0,-10.5293 0,-4.8955 -0.4233,-14.885 -1.6089,-18.3846 -2.0298,-5.9917 -3.4769,-8.5578 -9.6671,-10.4608 -1.6412,-0.5046 -6.9173,-0.8999 -9.0961,-0.8901 -2.9333,0.0132 -6.788,-0.174 -9.6957,-0.3906 -1.4402,-0.1073 -3.4866,-0.0967 -4.8979,-0.0967 -1.78,0 -3.3017,-0.0975 -4.9951,-0.0975 -3.4461,0 -6.5973,-0.0975 -9.9902,-0.0975 -5.9709,0 -12.0871,0.293 -17.9236,0.2925 -2.9806,-0.0003 -5.9747,0.303 -8.8148,0.2926 -2.7045,-0.0099 -6.1016,0.2014 -8.6264,0.48 -2.9612,0.3269 -5.0857,0.6835 -7.0845,2.015 -1.9308,1.2862 -3.3247,2.5467 -4.4006,4.6865 -0.9913,1.9715 -1.7145,4.4061 -2.1462,6.9305 -0.3707,2.1678 -0.7591,5.8637 -0.7591,8.3112z"/>
   <polygon class="nc-video-fil1" points="39.6967,47.9261 63.2713,35.7799 39.6831,20.0508 "/>
   <polygon class="nc-video-fil2" points="63.2713,35.7799 66.5754,33.9774 40.7444,20.571 "/>
  </g>
</svg>
